<?xml version="1.0" standalone="no"?>
<!DOCTYPE svg PUBLIC "-//W3C//DTD SVG 20010904//EN"
 "http://www.w3.org/TR/2001/REC-SVG-20010904/DTD/svg10.dtd">
<svg version="1.0" xmlns="http://www.w3.org/2000/svg"
 width="1280.000000pt" height="995.000000pt" viewBox="0 0 1280.000000 995.000000"
 preserveAspectRatio="xMidYMid meet">
<metadata>
Created by potrace 1.15, written by Peter Selinger 2001-2017
</metadata>
<g transform="translate(0.000000,995.000000) scale(0.100000,-0.100000)"
fill="#000000" stroke="none">
<path d="M345 9936 c-84 -21 -147 -57 -210 -121 -65 -65 -105 -137 -124 -223
-8 -39 -11 -1006 -11 -3650 0 -3940 -4 -3651 57 -3764 32 -59 123 -148 183
-178 102 -52 -26 -50 2508 -50 2356 0 2362 0 2362 -20 0 -11 -11 -143 -25
-293 -14 -149 -32 -354 -40 -455 l-14 -183 -58 -87 c-41 -62 -127 -157 -299
-332 -133 -135 -256 -267 -273 -294 -26 -42 -31 -60 -31 -112 0 -54 4 -66 28
-91 15 -16 54 -41 87 -54 l60 -24 1780 -3 c1077 -1 1804 1 1841 7 90 14 161
47 190 90 29 43 33 124 8 177 -9 18 -106 129 -216 246 -207 221 -307 343 -357
438 -25 47 -31 76 -45 210 -16 164 -41 480 -51 667 l-6 113 2363 0 c2534 0
2406 -2 2508 50 60 30 151 119 183 178 61 113 57 -176 57 3764 0 2644 -3 3611
-11 3650 -37 172 -175 310 -347 347 -81 17 -12028 14 -12097 -3z"/>
</g>
</svg>
